PathFileType	4	(X/Y/Z)	D:\TRACE\v60_Jaco2_6-2-23\BothDRS_Motion2_10-platform.trc
DataRate	CameraRate	NumFrames	NumMarkers	Units	OrigDataRate	OrigDataStartFrame	OrigNumFrames
100.00	100.00	      61	5	mm	100.00	938	      7500
Frame#	Time	Left_Front			Right_Front			Left_Aft			Right_Aft			Post			
		X1	Y1	Z1	X2	Y2	Z2	X3	Y3	Z3	X4	Y4	Z4	X5	Y5	Z5	

938	9.370	-801.09613	44.82235	-629.42114	769.16815	45.40395	-634.55664	-708.96881	-16.95558	504.28552	733.01801	-18.52655	513.37506	-14.37886	1358.42322	-882.36414	
939	9.380	-802.17249	43.24882	-629.73260	767.96503	44.12903	-635.01031	-709.94373	-16.10477	504.00540	731.80011	-17.67991	513.16431	-15.55339	1356.89465	-886.42480	
940	9.390	-803.47772	42.25467	-629.76740	766.86237	42.86067	-635.40576	-711.12408	-15.26659	503.68759	730.75031	-16.93333	512.92072	-16.50807	1355.34656	-889.31964	
941	9.400	-804.48621	41.18317	-630.36707	765.52472	41.63123	-635.70386	-712.36829	-14.33119	503.54770	729.58923	-16.05030	512.64832	-17.36704	1353.57349	-892.79932	
942	9.410	-805.44153	39.77501	-630.75891	764.60547	40.24303	-635.97693	-713.34302	-13.59071	503.27560	728.55054	-15.01678	512.38293	-18.46900	1351.82629	-895.41827	
943	9.420	-806.67743	38.64153	-630.95483	763.34589	39.19847	-636.27570	-714.73199	-12.23115	502.85083	727.34222	-13.91571	512.27380	-20.17047	1349.98022	-898.29620	
944	9.430	-808.10809	37.10908	-631.30261	762.18671	37.87077	-636.85565	-715.77509	-11.59509	502.59665	725.75104	-12.97542	512.01080	-21.44352	1348.41296	-900.88715	
945	9.440	-809.08521	35.75579	-631.53607	761.00824	36.61176	-637.07739	-716.93878	-10.83402	502.29694	725.10553	-12.03864	511.77301	-22.29634	1346.34070	-903.21802	
946	9.450	-810.15613	34.63352	-632.13983	759.97656	35.26413	-637.26770	-718.11914	-9.72988	502.02823	723.97986	-11.18982	511.45862	-23.69755	1344.51038	-905.33240	
947	9.460	-811.04407	33.40724	-632.63220	758.79572	33.91396	-637.76465	-719.13898	-8.65992	501.69284	722.96027	-10.19559	511.21680	-25.05471	1342.60217	-907.48145	
948	9.470	-812.46399	31.82310	-632.60107	757.72375	32.68264	-638.06238	-720.28296	-7.84176	501.54013	721.88251	-9.32453	510.88480	-26.13679	1340.85815	-910.14136	
949	9.480	-813.47736	30.66423	-633.08081	756.53290	31.46333	-638.51703	-721.49634	-6.67214	501.20078	720.63928	-8.30334	510.45297	-27.03987	1339.05176	-913.11804	
950	9.490	-814.80383	29.27132	-633.51312	755.43085	30.04528	-638.83093	-722.57703	-5.98353	501.03372	719.47253	-7.21202	510.33542	-28.02666	1336.94275	-915.98865	
951	9.500	-815.68732	27.70886	-633.91150	754.18268	28.42636	-639.27118	-723.89172	-4.84381	500.69608	718.29718	-6.44039	509.99274	-29.25324	1334.98584	-919.75470	
952	9.510	-817.04279	26.36586	-634.13806	753.05255	27.20000	-639.47675	-724.90442	-4.16959	500.53284	717.25061	-5.39803	509.68027	-30.92537	1333.16846	-923.50946	
953	9.520	-818.26965	25.19143	-634.62128	752.12781	25.70636	-640.03613	-726.09796	-3.06869	500.15271	716.14093	-4.47901	509.29556	-31.50340	1330.97449	-927.00952	
954	9.530	-819.16315	23.46030	-634.89954	750.72845	24.43757	-640.51300	-726.97186	-2.16709	499.94879	715.11902	-3.26999	509.20096	-32.75578	1328.92932	-930.83270	
955	9.540	-820.21906	22.39693	-635.04010	749.88654	23.10913	-640.60211	-728.23999	-0.97977	499.54956	713.82410	-2.18870	508.77057	-33.92090	1327.15417	-934.34198	
956	9.550	-821.29980	20.99387	-635.76526	748.84827	21.76783	-640.97736	-729.30322	-0.13057	499.28088	712.74542	-1.27330	508.42337	-34.74319	1324.91650	-937.42590	
957	9.560	-822.66577	19.34699	-635.98022	747.60175	20.28955	-641.54480	-730.44366	0.93544	498.88031	711.66785	-0.36751	508.14600	-35.65672	1323.05835	-940.60718	
958	9.570	-823.58069	17.95565	-636.30481	746.55365	18.88348	-641.78979	-731.58716	1.70491	498.61017	710.53455	0.65515	507.76901	-37.19961	1321.08044	-943.55841	
959	9.580	-824.45435	16.68753	-636.87341	745.50330	17.64282	-641.95154	-732.55890	2.93913	498.23492	709.78766	1.76330	507.45682	-38.61465	1319.13342	-946.32141	
960	9.590	-825.52826	15.08588	-636.84265	744.26099	16.54003	-642.43079	-733.67181	3.85547	497.82043	708.53534	2.77742	507.06940	-39.44988	1316.75830	-948.80078	
961	9.600	-826.90778	14.13875	-637.37750	743.26666	15.54795	-642.71301	-734.73126	4.80901	497.59262	707.83661	3.83759	506.74179	-40.25119	1314.61255	-951.25769	
962	9.610	-827.91125	12.38370	-637.69458	742.52917	13.25315	-643.08850	-735.60773	5.96819	497.22284	706.31464	4.88002	506.46924	-41.30856	1312.54797	-953.89636	
963	9.620	-828.89240	10.43973	-638.21887	741.53973	11.36565	-643.43420	-736.71857	6.96347	496.88629	705.12347	5.95726	506.24188	-42.79965	1310.51746	-956.93994	
964	9.630	-829.87158	9.02824	-638.53156	740.24646	10.28495	-643.90826	-737.77820	7.80174	496.52582	704.44696	7.11492	505.82925	-43.60307	1308.27637	-959.72333	
965	9.640	-830.81268	7.71597	-638.73730	739.31671	9.13399	-644.19659	-738.69983	8.79611	496.21457	703.28265	7.82592	505.55951	-44.55423	1306.09851	-963.56012	
966	9.650	-832.13751	6.47067	-639.12854	737.67188	7.29241	-644.79993	-739.74066	9.92001	496.00510	702.45441	8.81016	505.70532	-45.98961	1304.11353	-967.65186	
967	9.660	-832.96100	5.24983	-639.31506	736.78882	5.85401	-645.29797	-740.61505	10.74767	495.58472	701.61194	10.10012	505.22858	-46.62093	1302.23181	-971.76416	
968	9.670	-833.82471	3.47183	-639.70361	736.13617	4.94719	-645.50732	-741.62091	11.86129	495.28436	700.66772	11.02535	504.83771	-47.41546	1300.03748	-975.03778	
969	9.680	-834.72308	2.02669	-639.95618	735.05713	3.33099	-645.77185	-742.64728	12.67371	494.93991	699.75671	12.06109	504.37390	-48.51368	1298.07581	-978.59760	
970	9.690	-835.53070	0.84861	-640.55804	734.13446	1.90712	-645.95984	-743.56744	13.56750	494.55698	698.27820	12.89954	504.24225	-49.17543	1295.77124	-982.11475	
971	9.700	-836.72845	-0.35769	-640.70941	733.23486	0.52633	-646.25659	-744.58673	14.39242	494.36920	697.79492	13.69698	503.79755	-49.90959	1293.85449	-985.27533	
972	9.710	-837.78302	-1.59317	-640.74457	732.47284	-0.41078	-646.55756	-745.44397	15.48822	494.10034	697.08728	15.16957	503.60898	-50.91909	1291.75781	-988.29150	
973	9.720	-838.54535	-2.90060	-641.33337	731.39386	-1.98875	-646.83258	-746.17883	16.51169	493.79233	695.82806	15.79456	503.11212	-51.89854	1289.85266	-991.24811	
974	9.730	-839.27985	-4.77403	-641.64459	730.65924	-3.13892	-647.18750	-747.07458	17.41084	493.39081	695.25085	16.89093	502.60309	-53.03925	1287.90808	-993.86798	
975	9.740	-840.17456	-6.14608	-641.98792	729.76862	-4.77546	-647.49878	-748.16705	18.38888	493.05283	694.25177	17.80914	502.23425	-53.70513	1285.47864	-996.39587	
976	9.750	-840.71515	-7.21115	-642.45496	728.88593	-6.41952	-647.67975	-748.85822	19.12761	492.65942	693.16089	18.66702	501.89392	-54.55151	1283.21594	-998.85126	
977	9.760	-841.71979	-8.86863	-642.43799	728.24982	-7.50750	-647.94464	-749.49347	20.13379	492.36972	692.64380	19.77358	501.74380	-55.52343	1281.13501	-1000.95758	
978	9.770	-842.66064	-10.16249	-642.59570	727.42316	-9.01737	-648.21185	-750.46918	21.18741	492.00461	692.22528	20.86273	501.41089	-56.66093	1279.22083	-1003.22351	
979	9.780	-843.45856	-11.37309	-642.89777	726.62866	-10.06692	-648.69427	-751.34760	22.19770	491.64801	691.21381	21.82254	500.88928	-57.32485	1277.21631	-1005.75580	
980	9.790	-844.33325	-12.71818	-643.51385	725.85492	-11.57620	-648.89038	-751.86621	22.83799	491.36771	690.38605	22.44935	500.48468	-57.67910	1275.28418	-1008.07635	
981	9.800	-844.81610	-14.13292	-643.60687	725.17828	-13.03452	-649.25195	-752.80066	23.82930	491.08359	689.72931	23.37620	500.19162	-58.49887	1273.34277	-1010.63208	
982	9.810	-845.22589	-15.28368	-643.89868	724.32843	-14.09098	-649.35638	-753.38788	24.42704	490.82840	689.68579	25.28431	500.42636	-58.88629	1271.15100	-1013.28162	
983	9.820	-846.09015	-16.61799	-644.07361	723.83307	-15.48874	-649.62842	-754.08624	25.49480	490.50446	688.43042	25.81293	500.19983	-59.89695	1269.34192	-1016.05103	
984	9.830	-846.67322	-17.91286	-644.10651	723.36426	-16.55214	-649.69824	-754.41760	26.41742	490.21353	687.41412	26.37726	499.66669	-60.70027	1267.47314	-1019.00378	
985	9.840	-847.16040	-18.97571	-644.72040	722.53314	-17.76903	-650.16071	-755.06781	27.24974	489.82269	686.54822	27.00051	499.20697	-61.30892	1265.43286	-1022.11584	
986	9.850	-847.87665	-20.30209	-644.66003	721.84412	-18.99104	-650.55261	-755.70514	28.04910	489.41791	685.30237	27.33069	498.74231	-61.72365	1263.39661	-1025.01770	
987	9.860	-848.55383	-21.91152	-644.91003	721.48682	-20.54437	-650.69543	-756.26282	28.71492	489.08917	684.33093	27.89001	498.31085	-62.11676	1261.53528	-1027.96106	
988	9.870	-848.82910	-22.81203	-645.19312	721.09583	-21.65797	-651.06787	-756.98969	29.68563	488.60010	685.45300	29.45843	498.28101	-62.49113	1259.46875	-1030.78479	
989	9.880	-849.47223	-23.97315	-645.41473	720.50879	-22.77156	-651.17877	-757.16193	30.42965	488.37820	684.51874	29.93223	497.85632	-63.03962	1257.57568	-1033.57568	
990	9.890	-849.73645	-25.24387	-645.51001	720.00848	-24.05091	-651.55170	-757.47113	31.31615	488.09824	684.73779	31.38131	497.34192	-63.63859	1255.86633	-1036.41248	
991	9.900	-850.24908	-26.40294	-645.79449	719.50061	-25.09064	-651.83356	-757.86017	32.21356	487.85242	684.36853	32.14389	497.05167	-63.68102	1254.05652	-1038.84851	
992	9.910	-850.44513	-27.59735	-646.08636	718.96326	-26.60582	-651.97211	-758.20282	32.76590	487.57962	683.87811	33.04210	496.66904	-64.13458	1252.20911	-1041.12073	
993	9.920	-850.82556	-28.99318	-645.99561	719.58221	-27.34345	-651.65656	-758.54236	33.49648	487.12140	683.62366	33.74050	496.33865	-64.62922	1250.30798	-1043.35059	
994	9.930	-850.91113	-29.81334	-646.55029	719.17749	-28.50156	-651.94202	-758.85730	34.29394	486.81296	683.24683	34.48550	496.00806	-65.13895	1248.52222	-1045.45361	
995	9.940	-851.18732	-30.89057	-646.62073	718.98907	-29.48908	-652.28204	-758.90765	34.92631	486.61182	682.84937	35.37567	495.70123	-65.00326	1246.76904	-1047.45239	
996	9.950	-851.32867	-31.63158	-646.78961	718.94824	-30.40956	-652.46021	-759.09515	35.90657	486.26373	683.18365	36.16781	495.38669	-65.32050	1245.33911	-1049.70825	
997	9.960	-851.45959	-33.23286	-646.84644	718.76453	-31.60441	-652.64612	-759.16205	36.66265	485.95358	683.05347	36.92807	495.23651	-65.25766	1243.54565	-1051.50879	
998	9.970	-851.31024	-34.30750	-646.96100	718.76190	-32.60879	-652.93854	-759.16681	37.00570	485.71777	682.68384	37.48852	495.00082	-65.49928	1241.91724	-1053.61426	
